<?xml version="1.0" encoding="UTF-8" standalone="no"?>
<svg
   viewBox="0 0 16 16"
   fill="currentColor"
   class="bi bi-dice-1-fill"
   version="1.1"
   id="svg81"
   sodipodi:docname="d1_white.svg"
   inkscape:version="1.1.2 (08b2f3d93c, 2022-04-05)"
   xmlns:inkscape="http://www.inkscape.org/namespaces/inkscape"
   xmlns:sodipodi="http://sodipodi.sourceforge.net/DTD/sodipodi-0.dtd"
   xmlns="http://www.w3.org/2000/svg"
   xmlns:svg="http://www.w3.org/2000/svg">
  <defs
     id="defs85">
    <filter
       style="color-interpolation-filters:sRGB;"
       inkscape:label="Invert"
       id="filter797"
       x="0"
       y="0"
       width="1"
       height="1">
      <feColorMatrix
         type="hueRotate"
         values="180"
         result="color1"
         id="feColorMatrix793" />
      <feColorMatrix
         values="0 0 -1 0 1 0 -1 0 0 1 -1 0 0 0 1 -0.21 -0.72 -0.07 1 0 "
         result="color2"
         id="feColorMatrix795" />
    </filter>
  </defs>
  <sodipodi:namedview
     id="namedview83"
     pagecolor="#505050"
     bordercolor="#eeeeee"
     borderopacity="1"
     inkscape:pageshadow="0"
     inkscape:pageopacity="0"
     inkscape:pagecheckerboard="0"
     showgrid="false"
     inkscape:zoom="53"
     inkscape:cx="7.990566"
     inkscape:cy="7.8773585"
     inkscape:window-width="1853"
     inkscape:window-height="1025"
     inkscape:window-x="67"
     inkscape:window-y="27"
     inkscape:window-maximized="1"
     inkscape:current-layer="svg81" />
  <path
     d="M3 0a3 3 0 0 0-3 3v10a3 3 0 0 0 3 3h10a3 3 0 0 0 3-3V3a3 3 0 0 0-3-3H3zm5 9.5a1.5 1.5 0 1 1 0-3 1.5 1.5 0 0 1 0 3z"
     id="path79"
     style="filter:url(#filter797)" />
  <path
     style="fill:#000000;stroke-width:0.0188679"
     d="M 7.9056604,9.4855889 C 7.3941133,9.4556019 6.9008228,9.1259658 6.6707563,8.6603774 6.548382,8.4127272 6.5207753,8.2911725 6.5207753,8 c 0,-0.2911725 0.027607,-0.4127271 0.149981,-0.6603774 C 6.8444428,6.9881312 7.160223,6.7135572 7.5377358,6.5857754 7.6876414,6.5350349 7.8075285,6.5172461 8.0025148,6.5168118 8.5662219,6.5155561 9.0792632,6.8337342 9.3292438,7.3396226 9.4516179,7.5872729 9.4792247,7.7088275 9.4792247,8 c 0,0.2680418 -0.025551,0.3968768 -0.1200419,0.6052708 C 9.103603,9.16894 8.521196,9.5216715 7.9056604,9.4855889 Z"
     id="path122" />
  <path
     style="fill:#e6e6e6;stroke-width:0.0188679"
     d="M 2.6037736,15.962062 C 1.6245935,15.827593 0.76480657,15.213566 0.33196266,14.339623 0.13730021,13.946585 0.04924917,13.618652 0.01884853,13.173476 c -0.02457877,-0.359922 -0.02457877,-9.9870302 0,-10.3469524 C 0.05667671,2.2725817 0.21738647,1.7882991 0.50669362,1.3564514 0.96032813,0.67931283 1.6093348,0.24353779 2.4339623,0.06238831 L 2.6320755,0.01886792 H 8 13.367925 l 0.198113,0.04352039 c 0.552747,0.1214245 1.006307,0.34586867 1.407202,0.69635561 0.509792,0.44569148 0.849211,1.05447538 0.97607,1.75069008 l 0.04126,0.2264151 V 8 13.264151 l -0.04126,0.226415 c -0.216562,1.188507 -1.06885,2.113416 -2.217799,2.406768 -0.37483,0.0957 -0.179131,0.09261 -5.7503789,0.09092 -4.163474,-0.0013 -5.2337904,-0.0065 -5.3773585,-0.02619 z M 8.3696234,9.4618323 C 9.1415879,9.2644104 9.6245891,8.5112174 9.4824964,7.7264151 9.3776921,7.1475626 8.9446919,6.6852355 8.3696234,6.5381677 c -0.205734,-0.052614 -0.5335128,-0.052614 -0.7392468,0 -0.7730438,0.197698 -1.2551641,0.949518 -1.112873,1.7354172 0.1041311,0.5751342 0.5351547,1.038076 1.105527,1.1873934 0.1995351,0.052236 0.5441351,0.05263 0.7465928,8.54e-4 z"
     id="path102" />
  <path
     style="fill:#ececec;stroke-width:0.0188679"
     d="m 2.6320755,15.951476 c -0.093396,-0.0082 -0.2365842,-0.03233 -0.3181955,-0.05369 -0.081611,-0.02137 -0.1551787,-0.03465 -0.1634828,-0.02952 -0.0083,0.0051 -0.017946,0.0025 -0.021427,-0.0058 C 2.1254892,15.854081 2.0674528,15.827811 2,15.804048 1.7954732,15.731994 1.4725393,15.56293 1.2831694,15.428768 1.1846673,15.358984 1.0190515,15.216981 0.91513419,15.113208 0.74521749,14.943526 0.56384057,14.745283 0.57851155,14.745283 c 0.003098,0 -0.0313353,-0.05731 -0.0765186,-0.127358 -0.0451833,-0.07005 -0.11825352,-0.199529 -0.16237822,-0.287736 -0.0441247,-0.08821 -0.085523,-0.164623 -0.0919962,-0.169812 -0.006473,-0.0052 -0.0118849,-0.01792 -0.012026,-0.0283 -2.0698e-4,-0.01522 -0.092471,-0.304322 -0.13548476,-0.424528 -0.0055701,-0.01557 -0.01350021,-0.06152 -0.01762256,-0.10213 -0.0041224,-0.04061 -0.01580371,-0.08384 -0.02595858,-0.09608 -0.01015487,-0.01224 -0.01427066,-0.02644 -0.0091462,-0.03156 0.0051245,-0.0051 9.5289e-4,-0.085 -0.0092702,-0.177509 C 0.0117764,13.061979 0.01131993,2.9242206 0.03763306,2.7015857 0.04844579,2.6100994 0.05239123,2.5273164 0.04640069,2.5176234 0.04041015,2.5079306 0.04256414,2.5 0.05118735,2.5 0.05981055,2.5 0.07734934,2.444736 0.09016243,2.3771917 0.10297552,2.3096477 0.13976786,2.1716755 0.17192321,2.0705879 c 0.0321553,-0.1010875 0.0596931,-0.192286 0.061195,-0.2026634 0.001502,-0.010377 0.008272,-0.023113 0.0150451,-0.028302 0.006773,-0.00519 0.0329783,-0.056132 0.0582344,-0.1132075 C 0.42934694,1.448565 0.70708885,1.0726219 0.97369125,0.82318651 1.3535734,0.46776564 1.7860748,0.23829119 2.3470545,0.09451413 l 0.2583425,-0.06621224 5.4001317,4.1307e-4 5.4001313,4.1307e-4 0.215892,0.05506242 c 0.11874,0.03028434 0.222024,0.05127197 0.22952,0.04663919 0.0075,-0.004633 0.01648,-0.001597 0.01996,0.006747 0.0065,0.0155926 0.293264,0.12655683 0.327083,0.12656815 0.01038,3.47e-6 0.02311,0.005279 0.0283,0.0117237 0.0052,0.006445 0.06139,0.0378479 0.1249,0.0697853 0.43055,0.21652353 0.878509,0.62063366 1.143654,1.03170491 0.157176,0.2436815 0.347529,0.6728298 0.382883,0.8632075 0.0072,0.038915 0.02119,0.070755 0.03102,0.070755 0.0098,0 0.01315,0.00765 0.0074,0.016997 -0.0058,0.00935 0.0065,0.09958 0.02726,0.2005144 0.03724,0.1809984 0.03776,0.256099 0.03776,5.4729523 v 5.2894361 l -0.04856,0.231748 c -0.162961,0.777688 -0.551892,1.409653 -1.140251,1.85277 -0.06745,0.0508 -0.131163,0.101665 -0.141578,0.11303 -0.01042,0.01137 -0.02924,0.0227 -0.04183,0.02518 -0.01259,0.0025 -0.06442,0.03006 -0.115167,0.06128 -0.125766,0.07738 -0.385736,0.196769 -0.517459,0.237631 -0.05967,0.01851 -0.10849,0.04109 -0.10849,0.05019 0,0.0091 -0.007,0.01224 -0.01545,0.007 -0.0085,-0.0053 -0.07854,0.007 -0.15566,0.02715 -0.07712,0.02018 -0.259082,0.04507 -0.404365,0.05532 -0.3166,0.02233 -10.4042922,0.02135 -10.6603775,-10e-4 z m 5.690127,-6.4721181 c 0.045902,-0.00996 0.096194,-0.023508 0.1117598,-0.030118 0.015566,-0.00661 0.032547,-0.012782 0.037736,-0.013714 0.054385,-0.00978 0.1698113,-0.058538 0.1698113,-0.071734 0,-0.00933 0.00849,-0.011714 0.018868,-0.0053 0.010377,0.00641 0.018868,0.00267 0.018868,-0.00832 0,-0.01099 0.00684,-0.017859 0.015193,-0.015265 0.060576,0.018807 0.5131089,-0.3614965 0.5131089,-0.4312112 0,-0.014485 0.00867,-0.026336 0.019272,-0.026336 0.0106,0 0.029531,-0.023349 0.042069,-0.051887 0.012538,-0.028538 0.028224,-0.056132 0.034857,-0.061321 0.019505,-0.015257 0.1109428,-0.2033958 0.1166443,-0.2400028 0.00288,-0.01847 0.011271,-0.043253 0.018654,-0.055072 C 9.4711538,8.4176719 9.509434,8.1625751 9.509434,8 9.509434,7.8373811 9.4711449,7.5822796 9.4390287,7.530924 9.431637,7.5191045 9.4237162,7.4966981 9.421427,7.4811321 9.4143,7.4326742 9.3146987,7.2358491 9.297304,7.2358491 c -0.00908,0 -0.012142,-0.00707 -0.0068,-0.015713 C 9.3037491,7.1987034 9.0687043,6.90403 9.0157608,6.8756957 8.9923857,6.8631857 8.9601732,6.8378662 8.9441774,6.8194302 8.9025842,6.7714917 8.70489,6.6504558 8.6909508,6.6643953 c -0.00644,0.00644 -0.011705,0.0013 -0.011705,-0.011421 0,-0.012719 -0.00849,-0.017879 -0.018868,-0.011465 -0.010377,0.00641 -0.018868,0.00403 -0.018868,-0.0053 0,-0.013197 -0.1154262,-0.061957 -0.1698113,-0.071734 -0.00519,-9.321e-4 -0.02217,-0.00711 -0.037736,-0.013724 -0.1667185,-0.07085 -0.6978615,-0.071005 -0.8679246,-2.528e-4 -0.015566,0.00648 -0.043612,0.01476 -0.062325,0.018409 -0.018713,0.00365 -0.061166,0.021014 -0.09434,0.038589 -0.033174,0.017575 -0.069934,0.033643 -0.08169,0.035707 -0.034383,0.00604 -0.2351795,0.138514 -0.3309542,0.2183502 -0.090067,0.075079 -0.283643,0.3136202 -0.2790613,0.3438847 0.0014,0.00922 -0.00557,0.021953 -0.015468,0.028302 -0.021982,0.014093 -0.1148488,0.1955993 -0.123876,0.2421123 -0.00358,0.01847 -0.015667,0.055804 -0.02685,0.082964 -0.064205,0.1559349 -0.080152,0.5264734 -0.032424,0.7533661 0.015666,0.074472 0.034531,0.1450745 0.041922,0.1568939 0.00739,0.01182 0.015312,0.034226 0.017602,0.049792 0.00713,0.048458 0.1067283,0.245283 0.124123,0.245283 0.00908,0 0.011925,0.00742 0.00632,0.016494 -0.00561,0.00907 0.010873,0.039226 0.036622,0.06701 0.025749,0.027784 0.046816,0.05702 0.046816,0.064971 0,0.013956 0.1551157,0.1769185 0.2474283,0.2599446 0.053998,0.048565 0.2576636,0.1789356 0.2878014,0.1842268 0.011756,0.00206 0.048516,0.018132 0.08169,0.035707 0.033174,0.017575 0.075627,0.03494 0.09434,0.038589 0.018713,0.00365 0.046759,0.012038 0.062325,0.018643 0.1105619,0.046913 0.5898602,0.065689 0.7561648,0.029622 z"
     id="path178" />
  <path
     style="fill:#ececec;stroke-width:0.0188679"
     d="m 13.228356,15.972897 c -0.01395,-0.0086 -2.399576,-0.01723 -5.3013892,-0.01913 -2.9018128,-0.0019 -5.320597,-0.005 -5.3750759,-0.0069 -0.054479,-0.0019 -0.099054,-0.01073 -0.099057,-0.01963 -2.2e-6,-0.0089 -0.012468,-0.01139 -0.027702,-0.0055 -0.015234,0.0058 -0.032382,0.003 -0.038108,-0.0062 -0.00573,-0.0093 -0.025101,-0.01675 -0.043057,-0.01664 -0.050102,3.06e-4 -0.150387,-0.02141 -0.2322764,-0.0503 -0.040676,-0.01435 -0.073956,-0.02091 -0.073956,-0.01457 0,0.0063 -0.014858,-0.0017 -0.033019,-0.01783 -0.029182,-0.02594 -0.1594398,-0.08805 -0.1847284,-0.08808 -0.00523,-7e-6 -0.068325,-0.03092 -0.1402046,-0.06869 -0.071879,-0.03777 -0.1355327,-0.06767 -0.1414524,-0.06645 -0.00592,0.0012 -0.028865,-0.01464 -0.05099,-0.03525 -0.022125,-0.02061 -0.047431,-0.03302 -0.056237,-0.02758 -0.00881,0.0054 -0.01601,9.03e-4 -0.01601,-0.01009 0,-0.01099 -0.012736,-0.01998 -0.028302,-0.01998 -0.015566,0 -0.028302,-0.0071 -0.028302,-0.01568 0,-0.0086 -0.023349,-0.02773 -0.051887,-0.04245 -0.028538,-0.01473 -0.066463,-0.04375 -0.084278,-0.06451 -0.017815,-0.02075 -0.032674,-0.03222 -0.033019,-0.02547 -3.453e-4,0.0067 -0.028562,-0.01448 -0.062704,-0.04717 -0.43693395,-0.418332 -0.56056476,-0.549425 -0.56056476,-0.594396 0,-0.0119 -0.008491,-0.02164 -0.0188679,-0.02164 -0.0103774,0 -0.0188679,-0.01274 -0.0188679,-0.0283 0,-0.01557 -0.0169811,-0.04528 -0.0377359,-0.06604 -0.0207547,-0.02076 -0.0369507,-0.03986 -0.0359911,-0.04245 0.00528,-0.01427 -0.0480222,-0.108491 -0.0613771,-0.108491 -0.008712,0 -0.0138206,-0.0064 -0.0113531,-0.01415 0.00681,-0.02148 -0.0447698,-0.136792 -0.0611877,-0.136792 -0.0123361,0 -0.0403629,-0.06312 -0.10471904,-0.235849 -0.007733,-0.02075 -0.0167998,-0.05144 -0.0201484,-0.06818 -0.003349,-0.01675 -0.0162201,-0.05495 -0.0286033,-0.08491 -0.0123831,-0.02995 -0.0233563,-0.0587 -0.0243847,-0.06389 -0.001028,-0.0052 -0.008609,-0.02005 -0.0168455,-0.03302 -0.008237,-0.01297 -0.00993,-0.02359 -0.003764,-0.02359 0.006166,0 0.002923,-0.01549 -0.007208,-0.03442 -0.0101306,-0.01893 -0.02269993,-0.06993 -0.02793184,-0.113336 -0.0052319,-0.04341 -0.01361533,-0.08556 -0.01862981,-0.09367 -0.0225084,-0.03642 -0.03082278,-0.31869 -0.03318141,-1.1265 C 0.03384705,11.937736 0.02747032,11.561712 0.02107032,11.579485 0.01467032,11.597258 0.01001079,9.9878638 0.01071579,8.0030528 0.0114208,6.0182417 0.01668913,4.386247 0.0224232,4.3763979 0.02815726,4.3665489 0.03416335,3.9948857 0.03577006,3.5504796 0.03882346,2.7059304 0.04651464,2.497503 0.07670779,2.4410866 c 0.0099778,-0.018644 0.01652683,-0.040609 0.01455346,-0.048813 -0.0019734,-0.0082 0.0061448,-0.048878 0.01804027,-0.090387 0.0118955,-0.041509 0.0248335,-0.092453 0.0287511,-0.1132076 0.003918,-0.020755 0.0172578,-0.062549 0.0296448,-0.092876 0.0123871,-0.030327 0.0181966,-0.066412 0.0129101,-0.080189 -0.005287,-0.013777 -0.001388,-0.025048 0.008664,-0.025048 0.0100517,0 0.0182758,-0.013818 0.0182758,-0.030708 0,-0.016889 0.0424528,-0.114261 0.0943396,-0.216382 0.0518868,-0.102121 0.0943396,-0.1991811 0.0943396,-0.2156891 0,-0.016508 0.007601,-0.025317 0.0168908,-0.019575 0.0147092,0.00909 0.027459,-0.00885 0.0428563,-0.060297 0.002297,-0.00767 0.01951,-0.030412 0.038252,-0.050529 0.018742,-0.020117 0.0340763,-0.046803 0.0340763,-0.059302 0,-0.012499 0.0139511,-0.028079 0.0310024,-0.034622 0.0170513,-0.00654 0.025903,-0.016996 0.0196703,-0.023229 -0.006233,-0.00623 0.007411,-0.026977 0.0303183,-0.046098 0.0229078,-0.019121 0.0341375,-0.035048 0.024955,-0.035394 -0.009182,-3.453e-4 0.006123,-0.018577 0.0340125,-0.040515 0.0278894,-0.021938 0.0469225,-0.043672 0.0422958,-0.048299 -0.004627,-0.00463 0.0329963,-0.047145 0.0836065,-0.094485 0.0506102,-0.0473399 0.0876402,-0.0931569 0.0822889,-0.10181547 -0.005351,-0.008659 0.01389,-0.0303982 0.0427584,-0.0483103 0.0801904,-0.0497561 0.15607538,-0.12393847 0.14504318,-0.14178896 -0.00543,-0.008789 -8.849e-4,-0.017042 0.010105,-0.0183391 0.01099,-0.001297 0.027639,-0.00342 0.036997,-0.004717 0.00936,-0.001297 0.04734,-0.0299528 0.084403,-0.0636793 0.037063,-0.0337264 0.075682,-0.0613207 0.08582,-0.0613207 0.010138,0 0.025986,-0.0134966 0.035218,-0.0299925 0.00923,-0.0164958 0.020267,-0.0274978 0.024523,-0.0244488 0.012737,0.009125 0.1303793,-0.0655999 0.1303793,-0.0828159 0,-0.008752 0.00849,-0.0106659 0.018868,-0.004252 0.010377,0.006414 0.018868,0.002669 0.018868,-0.00832 0,-0.0109898 0.00637,-0.018404 0.014151,-0.016476 0.018158,0.004498 0.2745602,-0.12103772 0.2898453,-0.14190939 0.00635,-0.008669 0.019085,-0.0153324 0.028302,-0.0148068 C 1.8768509,0.25445228 2,0.21030974 2,0.19571882 c 0,-0.008409 0.012736,-0.010402 0.028302,-0.004429 0.015566,0.005973 0.028302,0.001461 0.028302,-0.0100261 0,-0.0114876 0.00637,-0.0198811 0.014151,-0.0186522 0.00778,0.001229 0.018396,5.9796e-4 0.023585,-0.001402 0.00519,-0.002 0.03066,-0.00735 0.056604,-0.0118879 C 2.176887,0.14478362 2.21085,0.13580102 2.226416,0.12936092 2.241982,0.12292092 2.27501,0.11498162 2.29981,0.11171832 2.324611,0.10845532 2.358573,0.09980468 2.375282,0.09249544 2.4091492,0.07767977 2.4190723,0.07452773 2.5,0.05287826 2.5311321,0.04454993 5.0197058,0.03773585 8.0301638,0.03773585 c 4.2932982,0 5.4833302,0.0050026 5.5188682,0.0232002 0.02492,0.01276012 0.104742,0.03535406 0.177383,0.05020878 0.07264,0.0148547 0.157547,0.0376654 0.188679,0.0506905 0.03113,0.013025 0.06297,0.0254547 0.07076,0.0276214 0.0078,0.002167 0.0184,0.006062 0.02359,0.008657 0.0052,0.002594 0.0158,0.006079 0.02358,0.007744 0.0078,0.001665 0.03326,0.0136382 0.0566,0.0266073 0.02335,0.0129691 0.04245,0.0188931 0.04245,0.0131645 0,-0.005729 0.04458,0.0126522 0.09906,0.0408463 0.05448,0.0281941 0.105425,0.0495636 0.113208,0.0474877 0.0078,-0.002076 0.01415,0.005217 0.01415,0.0162071 0,0.0109898 0.0085,0.014734 0.01887,0.00832 0.01038,-0.006414 0.01887,-0.0035 0.01887,0.006475 0,0.009975 0.02444,0.0266548 0.05431,0.037067 0.02987,0.0104122 0.0702,0.0325387 0.08962,0.04917 0.01942,0.0166313 0.04286,0.029444 0.05208,0.0284727 0.0092,-9.7132e-4 0.02195,0.005547 0.0283,0.0144841 0.01414,0.0199097 0.164757,0.13791643 0.176025,0.13791643 0.0045,0 0.0614,0.0488208 0.126543,0.10849057 0.06514,0.0596698 0.128194,0.10849056 0.140121,0.10849056 0.01193,0 0.02168,0.009608 0.02168,0.0213509 0,0.011743 0.06542,0.0902808 0.145375,0.17452821 0.07996,0.084248 0.140474,0.1531774 0.134482,0.1531774 -0.006,0 -4.01e-4,0.012642 0.01242,0.028094 0.01282,0.015452 0.03084,0.023441 0.04005,0.017754 0.0092,-0.00569 0.01673,0.00554 0.01673,0.024952 0,0.01941 0.01698,0.053519 0.03774,0.075796 0.02075,0.022278 0.03774,0.04935 0.03774,0.060162 0,0.010811 0.0085,0.019657 0.01887,0.019657 0.01038,0 0.01786,0.00637 0.01663,0.014151 -0.0053,0.033553 0.0046,0.056719 0.04071,0.095499 0.02116,0.022711 0.03372,0.041294 0.02792,0.041294 -0.01471,0 0.06669,0.1577619 0.0887,0.1719208 0.0099,0.00635 0.01653,0.01484 0.01479,0.018868 -0.009,0.021007 0.02571,0.1110981 0.04286,0.1110981 0.01098,0 0.01461,0.00536 0.0081,0.011915 -0.0066,0.00655 -0.0019,0.029902 0.01034,0.051887 0.01224,0.021985 0.02361,0.04634 0.02528,0.054123 0.0017,0.00778 0.0051,0.018396 0.0077,0.023585 0.0026,0.00519 0.0068,0.017925 0.0094,0.028302 0.0026,0.010377 0.0068,0.023113 0.0094,0.028302 0.0026,0.00519 0.0068,0.017924 0.0094,0.028302 0.0026,0.010377 0.0064,0.020991 0.0085,0.023585 0.0047,0.00578 0.01417,0.043752 0.02921,0.1166024 0.0063,0.030405 0.0158,0.062385 0.02116,0.071066 0.0096,0.015594 0.0226,0.074344 0.03665,0.1661053 0.02039,0.1331692 0.02756,0.3076083 0.03572,0.8679245 0.01212,0.8326425 0.01267,9.9219334 6.05e-4,9.9811324 -0.0053,0.02594 -0.01481,0.07264 -0.02117,0.103773 -0.0064,0.03113 -0.01304,0.06949 -0.01485,0.08524 -0.0018,0.01575 -0.0081,0.03697 -0.01407,0.04717 -0.0093,0.01596 -0.03654,0.130362 -0.04487,0.188348 -0.0015,0.01038 -0.01259,0.04293 -0.02466,0.07234 -0.01207,0.02941 -0.01714,0.06125 -0.01126,0.07076 0.0059,0.0095 7.83e-4,0.01728 -0.01132,0.01728 -0.0121,0 -0.01711,0.01274 -0.01114,0.0283 0.006,0.01557 0.0036,0.0283 -0.0054,0.0283 -0.01488,0 -0.04507,0.07782 -0.04757,0.122642 -5.8e-4,0.01038 -0.01167,0.03009 -0.02464,0.0438 -0.02128,0.02249 -0.03183,0.06435 -0.02582,0.102426 0.0012,0.0078 -0.0068,0.01415 -0.01775,0.01415 -0.01099,0 -0.01473,0.0085 -0.0083,0.01887 0.0064,0.01038 0.0022,0.01887 -0.0094,0.01887 -0.0116,0 -0.01585,0.0085 -0.0094,0.01887 0.0064,0.01038 0.0022,0.01887 -0.0094,0.01887 -0.0116,0 -0.01585,0.0085 -0.0094,0.01887 0.0064,0.01038 0.0022,0.01887 -0.0094,0.01887 -0.0116,0 -0.0163,0.0078 -0.01043,0.01726 0.0059,0.0095 0.0039,0.0201 -0.0043,0.02359 -0.02106,0.0089 -0.138673,0.204442 -0.122951,0.204442 0.0071,0 -0.0036,0.01247 -0.02376,0.0277 -0.02014,0.01524 -0.03066,0.02797 -0.02338,0.0283 0.0073,3.31e-4 -0.0076,0.02307 -0.03302,0.05052 -0.02545,0.02746 -0.04627,0.05938 -0.04627,0.07093 0,0.01156 -0.01698,0.03161 -0.03773,0.04458 -0.02075,0.01296 -0.03774,0.03038 -0.03774,0.0387 0,0.04327 -0.400057,0.446124 -0.421619,0.424562 -0.0044,-0.0044 -0.02599,0.01478 -0.04793,0.04267 -0.02194,0.02789 -0.03989,0.04365 -0.03989,0.03503 0,-0.0086 -0.02759,0.0107 -0.06132,0.04293 -0.06741,0.06443 -0.155529,0.12029 -0.264151,0.167452 -0.03892,0.0169 -0.07076,0.03879 -0.07076,0.04865 0,0.0099 -0.0085,0.01269 -0.01887,0.0063 -0.01038,-0.0064 -0.01887,-0.0022 -0.01887,0.0094 0,0.0116 -0.0085,0.01585 -0.01887,0.0094 -0.01038,-0.0064 -0.01887,-0.0022 -0.01887,0.0094 0,0.0116 -0.0085,0.01585 -0.01887,0.0094 -0.01038,-0.0064 -0.01887,-0.0027 -0.01887,0.0083 0,0.01099 -0.0064,0.01859 -0.01415,0.01689 -0.03084,-0.0067 -0.117925,0.02724 -0.117925,0.04602 0,0.01098 -0.0054,0.01461 -0.01191,0.0081 -0.0066,-0.0066 -0.0299,-0.002 -0.05189,0.01008 -0.02199,0.0121 -0.05528,0.02455 -0.074,0.02767 -0.01871,0.0031 -0.0579,0.01802 -0.08708,0.03311 -0.02918,0.01509 -0.07755,0.0325 -0.107486,0.03869 -0.02994,0.0062 -0.06292,0.01367 -0.0733,0.01661 -0.01038,0.0029 -0.06132,0.01163 -0.113208,0.01928 -0.05189,0.0077 -0.107075,0.01824 -0.122641,0.02351 -0.01557,0.0053 -0.07412,0.01251 -0.130115,0.01609 -0.056,0.0036 -0.107164,0.01517 -0.113705,0.02575 -0.0068,0.01101 -0.02275,0.01253 -0.03726,0.0036 z M 0.03175687,11.213443 c -0.0060231,-0.01505 -0.01049402,-0.01058 -0.01139937,0.0114 -8.1927e-4,0.01989 0.0036401,0.03103 0.0099098,0.02476 0.0062696,-0.0063 0.00694,-0.02254 0.0014896,-0.03616 z M 8.3301887,9.4767713 c 0.020755,-0.00418 0.071698,-0.018288 0.1132075,-0.031354 0.04151,-0.013066 0.086174,-0.027124 0.099255,-0.03124 0.013081,-0.00412 0.029113,-0.00699 0.035626,-0.00639 0.00651,6.019e-4 0.017888,-0.00868 0.025276,-0.020638 0.00739,-0.011954 0.025318,-0.024132 0.039846,-0.027064 0.036887,-0.00744 0.098287,-0.034441 0.1207526,-0.053096 0.010377,-0.00862 0.063086,-0.047965 0.1171308,-0.087439 0.1146091,-0.083711 0.269623,-0.2236551 0.2697491,-0.2435244 5.66e-5,-0.00757 0.023519,-0.039234 0.052159,-0.070366 0.028639,-0.031132 0.073161,-0.096934 0.098937,-0.1462264 0.025776,-0.049292 0.053749,-0.089623 0.062162,-0.089623 0.00841,0 0.010049,-0.00849 0.00364,-0.018868 -0.00641,-0.010377 -0.00125,-0.018868 0.011465,-0.018868 0.01272,0 0.017539,-0.00559 0.010711,-0.012415 -0.00683,-0.00683 -0.00296,-0.023809 0.0086,-0.037736 0.011558,-0.013927 0.016163,-0.025321 0.010233,-0.025321 -0.00593,0 0.00233,-0.031375 0.018351,-0.069723 C 9.4784453,8.3644349 9.5,8.2201113 9.5,8 9.5,7.7796674 9.4784543,7.635587 9.4271411,7.512777 9.4110396,7.4742409 9.3970994,7.4364975 9.3961626,7.4289028 9.395226,7.4213081 9.3596049,7.3514151 9.3170047,7.2735849 9.2257638,7.1068887 9.0385789,6.8735287 8.9716453,6.8430317 c -0.025914,-0.011807 -0.047117,-0.030141 -0.047117,-0.04074 0,-0.0106 -0.013002,-0.019272 -0.028894,-0.019272 -0.015892,0 -0.033781,-0.012736 -0.039754,-0.028302 -0.00597,-0.015566 -0.020717,-0.028302 -0.032764,-0.028302 -0.012047,0 -0.053141,-0.021226 -0.09132,-0.04717 -0.038179,-0.025943 -0.082603,-0.04717 -0.09872,-0.04717 -0.016117,0 -0.029303,-0.00764 -0.029303,-0.016986 0,-0.00934 -0.044576,-0.027443 -0.099057,-0.040224 C 8.4502358,6.5620845 8.3974813,6.5468815 8.3874849,6.5410808 8.3502755,6.5194894 8.2292719,6.5096853 8,6.5096853 c -0.1920108,0 -0.3867925,0.014175 -0.3867925,0.028149 0,0.00153 -0.012736,0.00589 -0.028302,0.00968 -0.015566,0.00379 -0.045283,0.011062 -0.066038,0.016164 -0.020755,0.0051 -0.071371,0.026825 -0.11248,0.048273 -0.041109,0.021448 -0.085078,0.038996 -0.097709,0.038996 -0.012631,0 -0.034185,0.011119 -0.047897,0.024707 -0.013713,0.013589 -0.088612,0.067626 -0.1664421,0.120081 -0.07783,0.052455 -0.1627358,0.1236556 -0.1886792,0.1582228 -0.025943,0.034567 -0.068962,0.088786 -0.095596,0.1204851 -0.080859,0.096236 -0.22844,0.3593857 -0.2112134,0.3766123 0.00617,0.00617 -1.087e-4,0.011212 -0.013945,0.011212 -0.013837,0 -0.019571,0.00559 -0.012742,0.012415 0.00683,0.00683 0.00296,0.023809 -0.0086,0.037736 -0.011558,0.013927 -0.01469,0.025321 -0.00696,0.025321 0.00773,0 0.00423,0.011842 -0.00779,0.026316 -0.012012,0.014474 -0.020537,0.033577 -0.018944,0.042453 0.00159,0.00888 7.962e-4,0.020382 -0.00177,0.025571 -0.023575,0.04765 -0.034146,0.4747696 -0.015177,0.6132075 0.017323,0.1264244 0.02554,0.1596262 0.059789,0.2415976 0.016023,0.038348 0.025124,0.069723 0.020226,0.069723 -0.0049,0 0.005,0.021226 0.022001,0.04717 0.016999,0.025943 0.023562,0.0473 0.014586,0.047459 -0.00898,1.509e-4 -0.00685,0.00653 0.00473,0.014151 0.011577,0.00762 0.040312,0.05207 0.063855,0.098768 0.023543,0.046698 0.048758,0.089151 0.056034,0.09434 0.00728,0.00519 0.020994,0.023656 0.030484,0.041039 0.033439,0.061248 0.3084703,0.3300834 0.3304369,0.322993 0.00663,-0.00214 0.039899,0.020965 0.073928,0.051345 0.034028,0.03038 0.092453,0.065107 0.129833,0.07717 0.03738,0.012063 0.093435,0.035193 0.1245674,0.051399 0.064462,0.033557 0.051798,0.029801 0.2264151,0.067152 0.1214511,0.025978 0.5441985,0.030577 0.6603773,0.00718 z M 0.03175687,4.6285377 c -0.0060231,-0.015052 -0.01049402,-0.010581 -0.01139937,0.0114 -8.1927e-4,0.01989 0.0036401,0.031034 0.0099098,0.024764 0.0062696,-0.00627 0.00694,-0.022543 0.0014896,-0.036164 z"
     id="path521" />
</svg>
