<?xml version="1.0" encoding="UTF-8" standalone="no"?>
<svg
   viewBox="0 0 16 16"
   fill="currentColor"
   class="bi bi-dice-2-fill"
   version="1.1"
   id="svg4"
   sodipodi:docname="d2_white.svg"
   inkscape:version="1.1.2 (08b2f3d93c, 2022-04-05)"
   xmlns:inkscape="http://www.inkscape.org/namespaces/inkscape"
   xmlns:sodipodi="http://sodipodi.sourceforge.net/DTD/sodipodi-0.dtd"
   xmlns="http://www.w3.org/2000/svg"
   xmlns:svg="http://www.w3.org/2000/svg">
  <defs
     id="defs8">
    <filter
       style="color-interpolation-filters:sRGB;"
       inkscape:label="Invert"
       id="filter356"
       x="0"
       y="0"
       width="1"
       height="1">
      <feColorMatrix
         type="hueRotate"
         values="180"
         result="color1"
         id="feColorMatrix352" />
      <feColorMatrix
         values="-1 0 0 0 1 0 0 -1 0 1 0 -1 0 0 1 -0.21 -0.72 -0.07 1 0 "
         result="color2"
         id="feColorMatrix354" />
    </filter>
  </defs>
  <sodipodi:namedview
     id="namedview6"
     pagecolor="#505050"
     bordercolor="#eeeeee"
     borderopacity="1"
     inkscape:pageshadow="0"
     inkscape:pageopacity="0"
     inkscape:pagecheckerboard="0"
     showgrid="false"
     inkscape:zoom="51.375"
     inkscape:cx="7.9902676"
     inkscape:cy="7.8734793"
     inkscape:window-width="1853"
     inkscape:window-height="1025"
     inkscape:window-x="67"
     inkscape:window-y="27"
     inkscape:window-maximized="1"
     inkscape:current-layer="svg4" />
  <path
     d="M0 3a3 3 0 0 1 3-3h10a3 3 0 0 1 3 3v10a3 3 0 0 1-3 3H3a3 3 0 0 1-3-3V3zm5.5 1a1.5 1.5 0 1 0-3 0 1.5 1.5 0 0 0 3 0zm6.5 9.5a1.5 1.5 0 1 0 0-3 1.5 1.5 0 0 0 0 3z"
     id="path2"
     style="filter:url(#filter356)" />
  <path
     style="fill:#000000;stroke-width:0.0194647"
     d="M 3.8188392,5.4785008 C 3.1808153,5.392588 2.6582754,4.9028348 2.5388896,4.2788614 2.3924195,3.5133312 2.8727079,2.758637 3.6345761,2.5571704 3.8416967,2.5023999 4.1575225,2.5021871 4.3635037,2.5566793 4.7867798,2.6686567 5.1474157,2.9628633 5.3334141,3.3479319 5.4487823,3.5867762 5.4779054,3.7182046 5.4779054,4 c 0,0.2817954 -0.029123,0.4132238 -0.1444913,0.6520681 C 5.0624927,5.2129512 4.4259967,5.5602573 3.8188392,5.4785008 Z"
     id="path280" />
  <path
     style="fill:#000000;stroke-width:0.0194647"
     d="m 11.818839,13.478501 c -0.638024,-0.08591 -1.160564,-0.575666 -1.279949,-1.19964 -0.14647,-0.76553 0.333818,-1.520224 1.095686,-1.721691 0.207121,-0.05477 0.522947,-0.05498 0.728928,-4.91e-4 0.423276,0.111978 0.783912,0.406184 0.96991,0.791253 0.115368,0.238844 0.144491,0.370273 0.144491,0.652068 0,0.281795 -0.02912,0.413224 -0.144491,0.652068 -0.270921,0.560883 -0.907417,0.908189 -1.514575,0.826433 z"
     id="path319" />
  <path
     style="fill:#ececec;stroke-width:0.0194647"
     d="M 2.7153285,15.977586 C 1.6568258,15.847816 0.80880823,15.268816 0.34273898,14.357657 0.14746413,13.975898 0.04948932,13.618875 0.0189098,13.177616 -0.00401402,12.846827 -0.00401402,3.1531729 0.0189098,2.8223844 0.04948932,2.3811249 0.14746413,2.0241022 0.34273898,1.6423426 0.77021816,0.80662673 1.5467592,0.23067391 2.4817518,0.05585798 2.6688654,0.02087328 2.8824434,0.01946472 8,0.01946472 c 5.113015,0 5.331301,0.0014363 5.518248,0.03630945 0.935284,0.1744676 1.711025,0.74985762 2.139013,1.58656843 0.195275,0.3817596 0.29325,0.7387823 0.323829,1.1800418 0.02294,0.3310834 0.02292,10.0245556 -1.9e-5,10.3552316 -0.03065,0.441683 -0.128176,0.795887 -0.325851,1.18344 -0.417294,0.818123 -1.140991,1.364471 -2.08831,1.576544 L 13.381995,15.979 8.0778589,15.9819 C 5.1605839,15.9835 2.7474453,15.981553 2.7153285,15.9776 Z M 12.36983,13.458088 c 0.504413,-0.121852 0.887126,-0.478676 1.06396,-0.99199 C 13.49393,12.29152 13.49712,12.26799 13.49702,12 13.496923,11.73089 13.49392,11.708859 13.43159,11.526367 13.215485,10.893136 12.666476,10.499238 12,10.499238 c -0.666476,0 -1.215485,0.393898 -1.431596,1.027129 -0.06228,0.182492 -0.06532,0.204523 -0.06543,0.473633 -9.8e-5,0.26799 0.0031,0.29152 0.06323,0.466098 0.265851,0.77171 1.013429,1.182877 1.80362,0.99199 z m -8.0000003,-8 C 4.8742429,5.3362365 5.2569557,4.979412 5.43379,4.4660981 5.4939315,4.2915202 5.4971235,4.2679903 5.4970225,4 5.4969252,3.7308903 5.4938778,3.7088586 5.4315965,3.5263675 5.2154848,2.893136 4.6664759,2.4992378 4,2.4992378 3.3335241,2.4992378 2.7845152,2.893136 2.5684035,3.5263675 2.5061222,3.7088586 2.5030787,3.7308903 2.5029775,4 2.5028802,4.2679903 2.5060685,4.2915202 2.56621,4.4660981 2.8320605,5.2378077 3.5796385,5.6489752 4.3698297,5.458088 Z"
     id="path348" />
  <path
     style="fill:#ececec;stroke-width:0.0194647"
     d="m 2.5244564,15.939849 c -0.32044,-0.05791 -0.5884763,-0.148216 -0.8922995,-0.300617 -0.081876,-0.04107 -0.1541384,-0.0694 -0.1605839,-0.06295 -0.00645,0.0064 -0.011719,0.0022 -0.011719,-0.0094 0,-0.01162 -0.032847,-0.04093 -0.072993,-0.06514 -0.040146,-0.02421 -0.1058394,-0.06946 -0.1459854,-0.100547 -0.040146,-0.03109 -0.072993,-0.05092 -0.072993,-0.04407 0,0.0068 -0.019708,-0.0086 -0.043796,-0.0344 C 1.1,15.296945 0.9999898,15.200106 0.90184269,15.107517 0.80369559,15.014927 0.72720103,14.939173 0.73185477,14.939173 c 0.004654,0 -0.0338921,-0.05475 -0.0856574,-0.121655 -0.10918614,-0.14113 -0.22840253,-0.329228 -0.30533401,-0.481752 -0.0296989,-0.05888 -0.0594186,-0.111435 -0.0660438,-0.116788 -0.006625,-0.0054 -0.0137658,-0.02287 -0.0158681,-0.03893 -0.002102,-0.01606 -0.0311628,-0.10365 -0.0645791,-0.194648 -0.0753378,-0.205156 -0.11186309,-0.359978 -0.14694634,-0.622871 -0.04065794,-0.304666 -0.04065794,-10.4203941 0,-10.7250604 0.03508325,-0.2628929 0.0716085,-0.4177149 0.14694634,-0.6228711 0.0334163,-0.090998 0.0624769,-0.1785888 0.0645791,-0.1946472 0.002102,-0.016058 0.009215,-0.033577 0.015806,-0.038929 0.006591,-0.00535 0.0316866,-0.049148 0.0557679,-0.097324 C 0.56277608,1.2190757 0.92792158,0.80354209 1.3479319,0.52589518 1.4094891,0.48520294 1.459854,0.44293043 1.459854,0.43195626 c 0,-0.0109741 0.0058,-0.0141537 0.012887,-0.007066 0.00709,0.007088 0.066212,-0.0166565 0.1313868,-0.0527657 0.1708043,-0.0946313 0.4493336,-0.2013312 0.709719,-0.27188087 L 2.540146,0.03892944 h 5.4501216 5.4501214 l 0.184915,0.04653962 c 0.101703,0.0255968 0.231928,0.06270487 0.289389,0.08246239 0.05746,0.0197575 0.112205,0.0311445 0.121654,0.0253043 0.0095,-0.00584 0.01718,-0.002954 0.01718,0.006413 0,0.009367 0.05036,0.0373058 0.111922,0.0620852 0.06156,0.0247794 0.165455,0.0743178 0.230885,0.11008518 0.06543,0.0357674 0.124554,0.0594408 0.131387,0.0526077 0.0068,-0.006833 0.01242,-0.00349 0.01242,0.007429 0,0.0161952 0.251822,0.19764767 0.280784,0.20232117 0.0046,7.4745e-4 0.08753,0.0759389 0.18421,0.16709226 0.268718,0.25334854 0.459662,0.50134064 0.626978,0.81430204 0.04579,0.085645 0.08817,0.1600973 0.09418,0.1654501 0.006,0.00535 0.01272,0.022871 0.0149,0.038929 0.0022,0.016058 0.03477,0.1146672 0.07241,0.2191305 0.03764,0.1044633 0.08291,0.2708867 0.10059,0.3698297 0.01768,0.098943 0.03635,0.193035 0.04148,0.2090934 0.0181,0.05662 0.01878,0.2508718 0.01878,5.3819951 0,5.1311229 -6.77e-4,5.3253749 -0.01878,5.3819949 -0.0051,0.01606 -0.0238,0.110151 -0.04148,0.209093 -0.01768,0.09894 -0.06295,0.265367 -0.10059,0.36983 -0.03764,0.104464 -0.07023,0.203072 -0.07241,0.219131 -0.0022,0.01606 -0.0094,0.03358 -0.01602,0.03893 -0.0066,0.0054 -0.0355,0.05622 -0.06416,0.113043 -0.08107,0.160724 -0.201822,0.352231 -0.306126,0.485497 -0.05237,0.06691 -0.09123,0.121655 -0.08636,0.121655 0.0049,0 -0.08038,0.08446 -0.189453,0.187684 -0.109071,0.103226 -0.209636,0.201766 -0.223479,0.218978 -0.01384,0.01721 -0.0293,0.02892 -0.03434,0.02602 -0.005,-0.0029 -0.07466,0.03892 -0.154699,0.09293 -0.08004,0.05401 -0.244152,0.145982 -0.364689,0.204379 -0.120537,0.0584 -0.229174,0.114592 -0.241415,0.124879 -0.01224,0.01029 -0.0262,0.01476 -0.03103,0.0099 -0.0048,-0.0048 -0.04736,0.0049 -0.09453,0.02153 -0.04717,0.01667 -0.188169,0.05618 -0.313334,0.0878 l -0.227571,0.0575 -5.3588032,-0.0017 c -4.522453,-0.0015 -5.3825164,-0.006 -5.5107454,-0.02921 z M 12.262774,13.4878 c 0.03747,-0.0057 0.08127,-0.01507 0.09732,-0.02087 0.01606,-0.0058 0.05013,-0.01454 0.07571,-0.01942 0.02558,-0.0049 0.07814,-0.0229 0.116789,-0.04005 0.03865,-0.01715 0.08092,-0.03346 0.09393,-0.03623 0.04303,-0.0092 0.258586,-0.147423 0.258586,-0.165824 0,-0.0099 0.0111,-0.01806 0.02466,-0.01806 0.03304,0 0.27893,-0.262596 0.337292,-0.360215 0.07731,-0.129303 0.152894,-0.294414 0.204903,-0.447571 0.04298,-0.126579 0.03642,-0.653203 -0.0098,-0.788321 -0.02015,-0.05888 -0.04531,-0.118005 -0.05591,-0.131387 -0.0106,-0.01338 -0.01367,-0.02433 -0.0068,-0.02433 0.01297,0 -0.08157,-0.197072 -0.102718,-0.214112 -0.0066,-0.0054 -0.0252,-0.03549 -0.04124,-0.06698 -0.06502,-0.127623 -0.477178,-0.500419 -0.513309,-0.464287 -0.0067,0.0067 -0.01221,0.0026 -0.01221,-0.0092 0,-0.01762 -0.03346,-0.0362 -0.09732,-0.05402 -0.0054,-0.0015 -0.04249,-0.01733 -0.08253,-0.0352 -0.198047,-0.08837 -0.657019,-0.118874 -0.907932,-0.06034 -0.123304,0.02876 -0.352425,0.115425 -0.371036,0.140336 -0.0059,0.0079 -0.04575,0.03192 -0.08851,0.05333 -0.09064,0.04538 -0.395453,0.343529 -0.438035,0.428451 -0.01604,0.03199 -0.0346,0.06255 -0.04124,0.0679 -0.02114,0.01704 -0.115688,0.214112 -0.102718,0.214112 0.0068,0 0.0038,0.01095 -0.0068,0.02433 -0.0106,0.01338 -0.03573,0.07251 -0.05584,0.131387 -0.04627,0.135484 -0.05294,0.662201 -0.01,0.788321 0.04981,0.146223 0.12019,0.301064 0.202569,0.445652 0.05307,0.09314 0.302607,0.362134 0.335946,0.362134 0.01334,0 0.02859,0.01095 0.03388,0.02433 0.01045,0.0264 0.200051,0.144769 0.247579,0.154566 0.01606,0.0033 0.03358,0.01129 0.03893,0.01773 0.02015,0.02425 0.266948,0.09544 0.36983,0.10668 0.05888,0.0064 0.111436,0.01627 0.116788,0.02185 0.0099,0.01031 0.265051,-0.0059 0.389295,-0.02471 z M 4.2627737,5.4878005 c 0.03747,-0.00568 0.081265,-0.015071 0.097324,-0.020873 0.016058,-0.0058 0.050127,-0.01454 0.075707,-0.019417 0.025581,-0.00488 0.078135,-0.022899 0.1167883,-0.04005 0.038653,-0.01715 0.080922,-0.033456 0.09393,-0.036234 0.043029,-0.00919 0.2585869,-0.1474225 0.2585869,-0.1658235 0,-0.00993 0.011097,-0.018056 0.02466,-0.018056 0.033044,0 0.27893,-0.2625962 0.337292,-0.3602151 C 5.3443657,4.6978297 5.419955,4.5327194 5.4719636,4.379562 5.5149468,4.2529828 5.5083875,3.7263591 5.4621446,3.5912409 5.4419934,3.5323601 5.4168333,3.473236 5.4062334,3.459854 c -0.0106,-0.013382 -0.013673,-0.024331 -0.00683,-0.024331 0.01297,0 -0.081574,-0.1970725 -0.1027181,-0.2141119 -0.00664,-0.00535 -0.025202,-0.035494 -0.041243,-0.06698 -0.06502,-0.1276225 -0.477177,-0.5004184 -0.5133084,-0.4642871 -0.00671,0.00671 -0.012208,0.00258 -0.012208,-0.00919 0,-0.017622 -0.033464,-0.036197 -0.097324,-0.05402 C 4.6272506,2.6254396 4.5901104,2.6096 4.5500695,2.5917331 4.3520224,2.5033616 3.8930503,2.4728586 3.6421374,2.5313927 3.5188333,2.5601575 3.2897115,2.6468177 3.2711005,2.6717291 c -0.00592,0.00792 -0.045747,0.031921 -0.08851,0.053332 -0.090637,0.045382 -0.3954524,0.3435288 -0.4380344,0.4284512 -0.016041,0.031992 -0.0346,0.062546 -0.041243,0.067899 -0.021144,0.017039 -0.1156878,0.2141119 -0.1027181,0.2141119 0.00684,0 0.00377,0.010949 -0.00683,0.024331 -0.0106,0.013382 -0.035725,0.072506 -0.055835,0.1313869 -0.046271,0.1354842 -0.052938,0.6622014 -0.00998,0.7883211 0.049808,0.1462235 0.1201899,0.301064 0.2025687,0.4456516 0.054761,0.096114 0.3030735,0.3621343 0.3380286,0.3621343 0.014486,0 0.026339,0.0076 0.026339,0.016878 0,0.018785 0.1400294,0.115897 0.1787443,0.1239609 0.01359,0.00283 0.036572,0.016176 0.051072,0.029656 0.0145,0.013481 0.034416,0.019533 0.044259,0.01345 0.00984,-0.00608 0.017896,-0.00351 0.017896,0.00572 0,0.024376 0.2460508,0.099812 0.3704142,0.113564 0.058559,0.00648 0.110851,0.016342 0.1162038,0.021926 0.00989,0.010315 0.2650509,-0.00588 0.3892944,-0.024704 z"
     id="path434" />
</svg>
