<?xml version="1.0" encoding="UTF-8" standalone="no"?>
<svg
   viewBox="0 0 16 16"
   fill="currentColor"
   class="bi bi-dice-3-fill"
   version="1.1"
   id="svg189"
   sodipodi:docname="d3_black.svg"
   inkscape:version="1.1.2 (08b2f3d93c, 2022-04-05)"
   xmlns:inkscape="http://www.inkscape.org/namespaces/inkscape"
   xmlns:sodipodi="http://sodipodi.sourceforge.net/DTD/sodipodi-0.dtd"
   xmlns="http://www.w3.org/2000/svg"
   xmlns:svg="http://www.w3.org/2000/svg">
  <defs
     id="defs193" />
  <sodipodi:namedview
     id="namedview191"
     pagecolor="#505050"
     bordercolor="#eeeeee"
     borderopacity="1"
     inkscape:pageshadow="0"
     inkscape:pageopacity="0"
     inkscape:pagecheckerboard="0"
     showgrid="false"
     inkscape:zoom="51.375"
     inkscape:cx="7.9902676"
     inkscape:cy="7.8734793"
     inkscape:window-width="1853"
     inkscape:window-height="1025"
     inkscape:window-x="67"
     inkscape:window-y="27"
     inkscape:window-maximized="1"
     inkscape:current-layer="svg189" />
  <path
     d="M3 0a3 3 0 0 0-3 3v10a3 3 0 0 0 3 3h10a3 3 0 0 0 3-3V3a3 3 0 0 0-3-3H3zm2.5 4a1.5 1.5 0 1 1-3 0 1.5 1.5 0 0 1 3 0zm8 8a1.5 1.5 0 1 1-3 0 1.5 1.5 0 0 1 3 0zM8 9.5a1.5 1.5 0 1 1 0-3 1.5 1.5 0 0 1 0 3z"
     id="path187" />
  <path
     style="fill:#ffffff;stroke-width:0.0194647"
     d="M 3.8832117,5.4866067 C 3.472838,5.4337359 3.1638755,5.2826785 2.9159826,5.0137109 2.4545983,4.5131019 2.3810524,3.814249 2.7278907,3.226411 2.8205956,3.0692905 3.0783774,2.8145347 3.2408759,2.7194477 c 0.4685465,-0.2741729 1.0497017,-0.2741729 1.5182482,0 0.1624985,0.095087 0.4202803,0.3498428 0.5129851,0.5069633 0.3435097,0.5821962 0.2734133,1.282526 -0.177846,1.7768563 -0.2617992,0.2867868 -0.6129881,0.4546085 -1.006672,0.4810556 -0.080292,0.00539 -0.1722627,0.00642 -0.2043795,0.00228 z"
     id="path232" />
  <path
     style="fill:#ffffff;stroke-width:0.0194647"
     d="M 7.7052326,9.4596346 C 6.959086,9.3110114 6.4288534,8.5832529 6.5217934,7.8353323 6.5661121,7.4786843 6.7038801,7.1983753 6.9574601,6.9489051 7.1897306,6.7203991 7.4204869,6.5964138 7.7202459,6.5390604 8.5060995,6.3887018 9.2673102,6.88751 9.4524475,7.6741419 c 0.039832,0.1692447 0.039832,0.4824715 0,0.6517162 C 9.2664736,9.1160448 8.4946597,9.6168788 7.7052326,9.4596346 Z"
     id="path271" />
  <path
     style="fill:#ffffff;stroke-width:0.0194647"
     d="m 11.883212,13.486607 c -0.410374,-0.05287 -0.719337,-0.203928 -0.967229,-0.472896 -0.461385,-0.500609 -0.534931,-1.199462 -0.188092,-1.7873 0.09271,-0.157121 0.350486,-0.411876 0.512985,-0.506963 0.468546,-0.274173 1.049702,-0.274173 1.518248,0 0.162499,0.09509 0.42028,0.349842 0.512985,0.506963 0.34351,0.582196 0.273414,1.282526 -0.177846,1.776856 -0.261799,0.286787 -0.612988,0.454609 -1.006672,0.481056 -0.08029,0.0054 -0.172263,0.0064 -0.204379,0.0023 z"
     id="path310" />
  <path
     style="fill:#ececec;stroke-width:0.0194647"
     d="M 3.7372263,5.4515792 C 3.4649699,5.3911792 3.249695,5.2905032 3.0594414,5.1346048 2.8439105,4.9579934 2.6246639,4.6047628 2.5605902,4.3309002 2.5180046,4.1488817 2.5215637,3.8267183 2.5681734,3.644476 2.6989078,3.1333096 3.122871,2.706992 3.6399027,2.5667955 c 0.1712572,-0.046438 0.5452234,-0.046157 0.7201946,5.403e-4 0.4912491,0.1311074 0.8995841,0.5233219 1.0558564,1.0141727 0.054853,0.1722938 0.068218,0.545682 0.026279,0.7341903 C 5.3643482,4.6657728 5.1251731,5.0155605 4.8211669,5.223992 4.5209886,5.4297991 4.0678805,5.5249349 3.7372263,5.4515792 Z"
     id="path1542" />
  <path
     style="fill:#ececec;stroke-width:0.0194647"
     d="M 7.6323311,9.4297773 C 7.2236186,9.3227414 6.8667657,9.0285316 6.6772279,8.6423358 6.5620261,8.4076043 6.5316098,8.2727856 6.5323114,8 6.5329696,7.7440581 6.5619081,7.6030497 6.6566636,7.3940711 6.8181502,7.0379199 7.1654458,6.7253121 7.5425791,6.5966405 7.747915,6.5265834 8.097171,6.5091499 8.3167333,6.5579979 8.8487436,6.676359 9.2872601,7.1021335 9.432176,7.6410287 9.4780008,7.8114364 9.4781939,8.1869229 9.4325458,8.3600973 9.3561018,8.6501018 9.1512261,8.9651848 8.9191597,9.1496455 8.7810277,9.2594414 8.4991858,9.3976183 8.3296567,9.4386575 8.1495344,9.482261 7.8165465,9.4780206 7.6323311,9.4297773 Z"
     id="path1581" />
  <path
     style="fill:#ececec;stroke-width:0.0194647"
     d="M 11.737226,13.451579 C 11.46497,13.391179 11.249695,13.290503 11.059441,13.134605 10.84391,12.957993 10.624664,12.604763 10.56059,12.3309 c -0.04258,-0.182018 -0.03903,-0.504182 0.0076,-0.686424 0.130735,-0.511166 0.554698,-0.937484 1.07173,-1.077681 0.171257,-0.04644 0.545223,-0.04616 0.720194,5.41e-4 0.491249,0.131107 0.899584,0.523322 1.055857,1.014173 0.05485,0.172293 0.06822,0.545682 0.02628,0.73419 -0.07788,0.350074 -0.317059,0.699861 -0.621065,0.908293 -0.300178,0.205807 -0.753286,0.300943 -1.083941,0.227587 z"
     id="path1620" />
</svg>
