<?xml version="1.0" encoding="UTF-8" standalone="no"?>
<svg
   viewBox="0 0 16 16"
   fill="currentColor"
   class="bi bi-dice-4-fill"
   version="1.1"
   id="svg4"
   sodipodi:docname="d4_white.svg"
   inkscape:version="1.1.2 (08b2f3d93c, 2022-04-05)"
   xmlns:inkscape="http://www.inkscape.org/namespaces/inkscape"
   xmlns:sodipodi="http://sodipodi.sourceforge.net/DTD/sodipodi-0.dtd"
   xmlns="http://www.w3.org/2000/svg"
   xmlns:svg="http://www.w3.org/2000/svg">
  <defs
     id="defs8">
    <filter
       style="color-interpolation-filters:sRGB;"
       inkscape:label="Invert"
       id="filter14"
       x="0"
       y="0"
       width="1"
       height="1">
      <feColorMatrix
         type="hueRotate"
         values="180"
         result="color1"
         id="feColorMatrix10" />
      <feColorMatrix
         values="-1 0 0 0 1 0 0 -1 0 1 0 -1 0 0 1 -0.21 -0.72 -0.07 1 0 "
         result="color2"
         id="feColorMatrix12" />
    </filter>
  </defs>
  <sodipodi:namedview
     id="namedview6"
     pagecolor="#505050"
     bordercolor="#eeeeee"
     borderopacity="1"
     inkscape:pageshadow="0"
     inkscape:pageopacity="0"
     inkscape:pagecheckerboard="0"
     showgrid="false"
     inkscape:zoom="51.375"
     inkscape:cx="7.9902676"
     inkscape:cy="7.8734793"
     inkscape:window-width="1853"
     inkscape:window-height="1025"
     inkscape:window-x="67"
     inkscape:window-y="27"
     inkscape:window-maximized="1"
     inkscape:current-layer="svg4" />
  <path
     d="M3 0a3 3 0 0 0-3 3v10a3 3 0 0 0 3 3h10a3 3 0 0 0 3-3V3a3 3 0 0 0-3-3H3zm1 5.5a1.5 1.5 0 1 1 0-3 1.5 1.5 0 0 1 0 3zm8 0a1.5 1.5 0 1 1 0-3 1.5 1.5 0 0 1 0 3zm1.5 6.5a1.5 1.5 0 1 1-3 0 1.5 1.5 0 0 1 3 0zM4 13.5a1.5 1.5 0 1 1 0-3 1.5 1.5 0 0 1 0 3z"
     id="path2"
     style="filter:url(#filter14)" />
  <path
     style="fill:#000000;stroke-width:0.0194647"
     d="M 3.8188392,5.4785008 C 3.1808153,5.392588 2.6582754,4.9028348 2.5388896,4.2788614 2.3924195,3.5133312 2.8727079,2.758637 3.6345761,2.5571704 3.8416967,2.5023999 4.1575225,2.5021871 4.3635037,2.5566793 4.7867798,2.6686567 5.1474157,2.9628633 5.3334141,3.3479319 5.4487823,3.5867762 5.4779054,3.7182046 5.4779054,4 c 0,0.2817954 -0.029123,0.4132238 -0.1444913,0.6520681 C 5.0624927,5.2129512 4.4259967,5.5602573 3.8188392,5.4785008 Z"
     id="path662" />
  <path
     style="fill:#000000;stroke-width:0.0194647"
     d="M 11.818839,5.4785008 C 11.180815,5.392588 10.658275,4.9028348 10.53889,4.2788614 10.39242,3.5133312 10.872708,2.758637 11.634576,2.5571704 c 0.207121,-0.054771 0.522947,-0.054983 0.728928,-4.911e-4 0.423276,0.1119774 0.783912,0.406184 0.96991,0.7912526 C 13.448782,3.5867762 13.477905,3.7182046 13.477905,4 c 0,0.2817954 -0.02912,0.4132238 -0.144491,0.6520681 -0.270921,0.5608831 -0.907417,0.9081892 -1.514575,0.8264327 z"
     id="path701" />
  <path
     style="fill:#000000;stroke-width:0.0194647"
     d="m 3.8188392,13.478501 c -0.6380239,-0.08591 -1.1605638,-0.575666 -1.2799496,-1.19964 -0.1464701,-0.76553 0.3338183,-1.520224 1.0956865,-1.721691 0.2071206,-0.05477 0.5229464,-0.05498 0.7289276,-4.91e-4 0.4232761,0.111978 0.783912,0.406184 0.9699104,0.791253 0.1153682,0.238844 0.1444913,0.370273 0.1444913,0.652068 0,0.281795 -0.029123,0.413224 -0.1444913,0.652068 -0.2709214,0.560883 -0.9074174,0.908189 -1.5145749,0.826433 z"
     id="path740" />
  <path
     style="fill:#000000;stroke-width:0.0194647"
     d="m 11.818839,13.478501 c -0.638024,-0.08591 -1.160564,-0.575666 -1.279949,-1.19964 -0.14647,-0.76553 0.333818,-1.520224 1.095686,-1.721691 0.207121,-0.05477 0.522947,-0.05498 0.728928,-4.91e-4 0.423276,0.111978 0.783912,0.406184 0.96991,0.791253 0.115368,0.238844 0.144491,0.370273 0.144491,0.652068 0,0.281795 -0.02912,0.413224 -0.144491,0.652068 -0.270921,0.560883 -0.907417,0.908189 -1.514575,0.826433 z"
     id="path779" />
  <path
     style="fill:#ececec;stroke-width:0.0194647"
     d="M 2.7153285,15.977586 C 1.6568258,15.847816 0.80880823,15.268816 0.34273898,14.357657 0.14746413,13.975898 0.04948932,13.618875 0.0189098,13.177616 -0.00401402,12.846827 -0.00401402,3.1531729 0.0189098,2.8223844 0.04948932,2.3811249 0.14746413,2.0241022 0.34273898,1.6423426 0.77021816,0.80662673 1.5467592,0.23067391 2.4817518,0.05585798 2.6688654,0.02087328 2.8824434,0.01946472 8,0.01946472 c 5.113015,0 5.331301,0.0014363 5.518248,0.03630945 0.935284,0.1744676 1.711025,0.74985762 2.139013,1.58656843 0.195275,0.3817596 0.29325,0.7387823 0.323829,1.1800418 0.02294,0.3310834 0.02292,10.0245556 -1.9e-5,10.3552316 -0.03065,0.441683 -0.128176,0.795887 -0.325851,1.18344 -0.417294,0.818123 -1.140991,1.364471 -2.08831,1.576544 L 13.381995,15.979 8.0778589,15.9819 C 5.1605839,15.9835 2.7474453,15.981553 2.7153285,15.9776 Z M 4.3698297,13.458088 C 4.8742429,13.336236 5.2569557,12.979412 5.43379,12.466098 5.4939315,12.29152 5.4971235,12.26799 5.4970225,12 5.4969252,11.73089 5.4938778,11.708859 5.4315965,11.526367 5.2154848,10.893136 4.6664759,10.499238 4,10.499238 c -0.6664759,0 -1.2154848,0.393898 -1.4315965,1.027129 C 2.5061222,11.708859 2.5030787,11.73089 2.5029775,12 c -9.73e-5,0.26799 0.00309,0.29152 0.063232,0.466098 0.2658505,0.77171 1.0134285,1.182877 1.8036202,0.99199 z m 8.0000003,0 c 0.504413,-0.121852 0.887126,-0.478676 1.06396,-0.99199 C 13.49393,12.29152 13.49712,12.26799 13.49702,12 13.496923,11.73089 13.49392,11.708859 13.43159,11.526367 13.215485,10.893136 12.666476,10.499238 12,10.499238 c -0.666476,0 -1.215485,0.393898 -1.431596,1.027129 -0.06228,0.182492 -0.06532,0.204523 -0.06543,0.473633 -9.8e-5,0.26799 0.0031,0.29152 0.06323,0.466098 0.265851,0.77171 1.013429,1.182877 1.80362,0.99199 z m -8.0000003,-8 C 4.8742429,5.3362365 5.2569557,4.979412 5.43379,4.4660981 5.4939315,4.2915202 5.4971235,4.2679903 5.4970225,4 5.4969252,3.7308903 5.4938778,3.7088586 5.4315965,3.5263675 5.2154848,2.893136 4.6664759,2.4992378 4,2.4992378 3.3335241,2.4992378 2.7845152,2.893136 2.5684035,3.5263675 2.5061222,3.7088586 2.5030787,3.7308903 2.5029775,4 2.5028802,4.2679903 2.5060685,4.2915202 2.56621,4.4660981 2.8320605,5.2378077 3.5796385,5.6489752 4.3698297,5.458088 Z m 8.0000003,0 C 12.874243,5.3362365 13.256956,4.979412 13.43379,4.4660981 13.493931,4.2915202 13.497124,4.2679903 13.497022,4 13.496925,3.7308903 13.493878,3.7088586 13.431596,3.5263675 13.215485,2.893136 12.666476,2.4992378 12,2.4992378 c -0.666476,0 -1.215485,0.3938982 -1.431596,1.0271297 C 10.506122,3.7088586 10.503079,3.7308903 10.502978,4 c -9.8e-5,0.2679903 0.0031,0.2915202 0.06323,0.4660981 0.265851,0.7717096 1.013429,1.1828771 1.80362,0.9919899 z"
     id="path797" />
</svg>
