<?xml version="1.0" encoding="UTF-8" standalone="no"?>
<svg
   viewBox="0 0 16 16"
   fill="currentColor"
   class="bi bi-dice-6-fill"
   version="1.1"
   id="svg930"
   sodipodi:docname="d6_black.svg"
   inkscape:version="1.1.2 (08b2f3d93c, 2022-04-05)"
   xmlns:inkscape="http://www.inkscape.org/namespaces/inkscape"
   xmlns:sodipodi="http://sodipodi.sourceforge.net/DTD/sodipodi-0.dtd"
   xmlns="http://www.w3.org/2000/svg"
   xmlns:svg="http://www.w3.org/2000/svg">
  <defs
     id="defs934" />
  <sodipodi:namedview
     id="namedview932"
     pagecolor="#505050"
     bordercolor="#eeeeee"
     borderopacity="1"
     inkscape:pageshadow="0"
     inkscape:pageopacity="0"
     inkscape:pagecheckerboard="0"
     showgrid="false"
     inkscape:zoom="51.375"
     inkscape:cx="7.9902676"
     inkscape:cy="7.8734793"
     inkscape:window-width="1853"
     inkscape:window-height="1025"
     inkscape:window-x="67"
     inkscape:window-y="27"
     inkscape:window-maximized="1"
     inkscape:current-layer="svg930" />
  <path
     d="M3 0a3 3 0 0 0-3 3v10a3 3 0 0 0 3 3h10a3 3 0 0 0 3-3V3a3 3 0 0 0-3-3H3zm1 5.5a1.5 1.5 0 1 1 0-3 1.5 1.5 0 0 1 0 3zm8 0a1.5 1.5 0 1 1 0-3 1.5 1.5 0 0 1 0 3zm1.5 6.5a1.5 1.5 0 1 1-3 0 1.5 1.5 0 0 1 3 0zM12 9.5a1.5 1.5 0 1 1 0-3 1.5 1.5 0 0 1 0 3zM5.5 12a1.5 1.5 0 1 1-3 0 1.5 1.5 0 0 1 3 0zM4 9.5a1.5 1.5 0 1 1 0-3 1.5 1.5 0 0 1 0 3z"
     id="path928" />
  <path
     style="fill:#ffffff;stroke-width:0.0194647"
     d="M 3.8832117,5.4866067 C 3.472838,5.4337359 3.1638755,5.2826785 2.9159826,5.0137109 2.4545983,4.5131019 2.3810524,3.814249 2.7278907,3.226411 2.8205956,3.0692905 3.0783774,2.8145347 3.2408759,2.7194477 c 0.4685465,-0.2741729 1.0497017,-0.2741729 1.5182482,0 0.1624985,0.095087 0.4202803,0.3498428 0.5129851,0.5069633 0.3435097,0.5821962 0.2734133,1.282526 -0.177846,1.7768563 -0.2617992,0.2867868 -0.6129881,0.4546085 -1.006672,0.4810556 -0.080292,0.00539 -0.1722627,0.00642 -0.2043795,0.00228 z"
     id="path1010" />
  <path
     style="fill:#ffffff;stroke-width:0.0194647"
     d="M 3.7080292,9.4602589 C 3.1122548,9.3291689 2.6617335,8.8776214 2.5403379,8.2899078 2.419606,7.7054075 2.6813045,7.0832927 3.1848648,6.7577255 3.4248772,6.6025501 3.637846,6.5330513 3.922937,6.516868 4.9589602,6.4580578 5.7405869,7.4764282 5.4123632,8.4574209 5.2389904,8.9755969 4.8193372,9.3503054 4.2899078,9.4596621 4.1185029,9.4950667 3.8673935,9.4953244 3.7080292,9.4602597 Z"
     id="path1049" />
  <path
     style="fill:#ffffff;stroke-width:0.0194647"
     d="M 3.8832117,13.486607 C 3.472838,13.433736 3.1638755,13.282679 2.9159826,13.013711 2.4545983,12.513102 2.3810524,11.814249 2.7278907,11.226411 c 0.092705,-0.157121 0.3504867,-0.411876 0.5129852,-0.506963 0.4685465,-0.274173 1.0497017,-0.274173 1.5182482,0 0.1624985,0.09509 0.4202803,0.349842 0.5129851,0.506963 0.3435097,0.582196 0.2734133,1.282526 -0.177846,1.776856 -0.2617992,0.286787 -0.6129881,0.454609 -1.006672,0.481056 -0.080292,0.0054 -0.1722627,0.0064 -0.2043795,0.0023 z"
     id="path1088" />
  <path
     style="fill:#ffffff;stroke-width:0.0194647"
     d="M 11.883212,5.4866067 C 11.472838,5.4337359 11.163875,5.2826785 10.915983,5.0137109 10.454598,4.5131019 10.381052,3.814249 10.727891,3.226411 c 0.09271,-0.1571205 0.350486,-0.4118763 0.512985,-0.5069633 0.468546,-0.2741729 1.049702,-0.2741729 1.518248,0 0.162499,0.095087 0.42028,0.3498428 0.512985,0.5069633 0.34351,0.5821962 0.273414,1.282526 -0.177846,1.7768563 -0.261799,0.2867868 -0.612988,0.4546085 -1.006672,0.4810556 -0.08029,0.00539 -0.172263,0.00642 -0.204379,0.00228 z"
     id="path1127" />
  <path
     style="fill:#ffffff;stroke-width:0.0194647"
     d="M 11.708029,9.4602589 C 11.112255,9.3291689 10.661733,8.8776214 10.540338,8.2899078 10.419606,7.7054075 10.681304,7.0832927 11.184865,6.7577255 11.424877,6.6025501 11.637846,6.5330513 11.922937,6.516868 c 1.036023,-0.05881 1.81765,0.9595602 1.489426,1.9405529 -0.173373,0.518176 -0.593026,0.8928845 -1.122455,1.0022412 -0.171405,0.035405 -0.422515,0.035662 -0.581879,5.968e-4 z"
     id="path1166" />
  <path
     style="fill:#ffffff;stroke-width:0.0194647"
     d="m 11.883212,13.486607 c -0.410374,-0.05287 -0.719337,-0.203928 -0.967229,-0.472896 -0.461385,-0.500609 -0.534931,-1.199462 -0.188092,-1.7873 0.09271,-0.157121 0.350486,-0.411876 0.512985,-0.506963 0.468546,-0.274173 1.049702,-0.274173 1.518248,0 0.162499,0.09509 0.42028,0.349842 0.512985,0.506963 0.34351,0.582196 0.273414,1.282526 -0.177846,1.776856 -0.261799,0.286787 -0.612988,0.454609 -1.006672,0.481056 -0.08029,0.0054 -0.172263,0.0064 -0.204379,0.0023 z"
     id="path1205" />
  <path
     style="fill:#ececec;stroke-width:0.0194647"
     d="M 3.7372263,5.4515792 C 3.4649699,5.3911792 3.249695,5.2905032 3.0594414,5.1346048 2.8439105,4.9579934 2.6246639,4.6047628 2.5605902,4.3309002 2.5180046,4.1488817 2.5215637,3.8267183 2.5681734,3.644476 2.6989078,3.1333096 3.122871,2.706992 3.6399027,2.5667955 c 0.1712572,-0.046438 0.5452234,-0.046157 0.7201946,5.403e-4 0.4912491,0.1311074 0.8995841,0.5233219 1.0558564,1.0141727 0.054853,0.1722938 0.068218,0.545682 0.026279,0.7341903 C 5.3643482,4.6657728 5.1251731,5.0155605 4.8211669,5.223992 4.5209886,5.4297991 4.0678805,5.5249349 3.7372263,5.4515792 Z"
     id="path2396" />
  <path
     style="fill:#ececec;stroke-width:0.0194647"
     d="M 3.620438,9.4227986 C 3.4166516,9.3603977 3.3763185,9.3425139 3.2196636,9.2450929 3.0597633,9.1456537 2.8223962,8.9037553 2.7276834,8.7437209 2.6916563,8.6828463 2.6347219,8.5562994 2.6011627,8.4625053 2.5428924,8.2996466 2.5401769,8.2788292 2.5408331,8 2.5414544,7.7359556 2.5465206,7.6930958 2.5938003,7.5519011 2.6856334,7.2776531 2.8783349,7.0032971 3.0941784,6.8394954 3.3703226,6.6299318 3.6669797,6.5304136 4.0155305,6.5304136 c 0.6216656,0 1.181235,0.4099911 1.385861,1.015407 0.044431,0.1314563 0.056517,0.2067749 0.063748,0.3972816 C 5.4756839,8.2209158 5.4374223,8.4084546 5.324151,8.6341551 5.2225353,8.8366312 5.1595875,8.9203323 4.9864117,9.0832436 4.8061814,9.2527914 4.5903288,9.3711085 4.3521175,9.4309248 4.1310598,9.4864337 3.8168586,9.482944 3.620438,9.4227986 Z"
     id="path2435" />
  <path
     style="fill:#ececec;stroke-width:0.0194647"
     d="M 3.7372263,13.451579 C 3.4649699,13.391179 3.249695,13.290503 3.0594414,13.134605 2.8439105,12.957993 2.6246639,12.604763 2.5605902,12.3309 c -0.042586,-0.182018 -0.039026,-0.504182 0.00758,-0.686424 0.1307344,-0.511166 0.5546976,-0.937484 1.0717293,-1.077681 0.1712572,-0.04644 0.5452234,-0.04616 0.7201946,5.41e-4 0.4912491,0.131107 0.8995841,0.523322 1.0558564,1.014173 0.054853,0.172293 0.068218,0.545682 0.026279,0.73419 -0.077884,0.350074 -0.3170591,0.699861 -0.6210653,0.908293 -0.3001783,0.205807 -0.7532864,0.300943 -1.0839406,0.227587 z"
     id="path2474" />
  <path
     style="fill:#ececec;stroke-width:0.0194647"
     d="M 11.737226,13.451579 C 11.46497,13.391179 11.249695,13.290503 11.059441,13.134605 10.84391,12.957993 10.624664,12.604763 10.56059,12.3309 c -0.04258,-0.182018 -0.03903,-0.504182 0.0076,-0.686424 0.130735,-0.511166 0.554698,-0.937484 1.07173,-1.077681 0.171257,-0.04644 0.545223,-0.04616 0.720194,5.41e-4 0.491249,0.131107 0.899584,0.523322 1.055857,1.014173 0.05485,0.172293 0.06822,0.545682 0.02628,0.73419 -0.07788,0.350074 -0.317059,0.699861 -0.621065,0.908293 -0.300178,0.205807 -0.753286,0.300943 -1.083941,0.227587 z"
     id="path2513" />
  <path
     style="fill:#ececec;stroke-width:0.0194647"
     d="M 11.620438,9.4227986 C 11.416652,9.3603977 11.376319,9.3425139 11.219664,9.2450929 11.059763,9.1456537 10.822396,8.9037553 10.727683,8.7437209 10.691656,8.6828463 10.634722,8.5562994 10.601163,8.4625053 10.542892,8.2996466 10.540177,8.2788292 10.540833,8 c 6.21e-4,-0.2640444 0.0057,-0.3069042 0.05297,-0.4480989 0.09183,-0.274248 0.284535,-0.548604 0.500378,-0.7124057 0.276145,-0.2095636 0.572802,-0.3090818 0.921352,-0.3090818 0.621666,0 1.181236,0.4099911 1.385862,1.015407 0.04443,0.1314563 0.05652,0.2067749 0.06375,0.3972816 0.01054,0.2778136 -0.02772,0.4653524 -0.140988,0.6910529 -0.101616,0.2024761 -0.164563,0.2861772 -0.337739,0.4490885 -0.180231,0.1695478 -0.396083,0.2878649 -0.634294,0.3476812 -0.221058,0.055509 -0.535259,0.052019 -0.73168,-0.00813 z"
     id="path2552" />
  <path
     style="fill:#ececec;stroke-width:0.0194647"
     d="M 11.737226,5.4515792 C 11.46497,5.3911792 11.249695,5.2905032 11.059441,5.1346048 10.84391,4.9579934 10.624664,4.6047628 10.56059,4.3309002 10.51801,4.1488817 10.52156,3.8267183 10.56819,3.644476 c 0.130735,-0.5111664 0.554698,-0.937484 1.07173,-1.0776805 0.171257,-0.046438 0.545223,-0.046157 0.720194,5.403e-4 0.491249,0.1311074 0.899584,0.5233219 1.055857,1.0141727 0.05485,0.1722938 0.06822,0.545682 0.02628,0.7341903 -0.07788,0.350074 -0.317059,0.6998617 -0.621065,0.9082932 -0.300178,0.2058071 -0.753286,0.3009429 -1.083941,0.2275872 z"
     id="path2591" />
</svg>
