<?xml version="1.0" encoding="UTF-8" standalone="no"?>
<!-- Generator: Adobe Illustrator 18.1.1, SVG Export Plug-In . SVG Version: 6.00 Build 0)  -->

<svg
   version="1.1"
   id="Capa_1"
   x="0px"
   y="0px"
   viewBox="0 0 51.48 51.48"
   style="enable-background:new 0 0 51.48 51.48;"
   xml:space="preserve"
   sodipodi:docname="resign1.svg"
   inkscape:version="1.1.2 (08b2f3d93c, 2022-04-05)"
   xmlns:inkscape="http://www.inkscape.org/namespaces/inkscape"
   xmlns:sodipodi="http://sodipodi.sourceforge.net/DTD/sodipodi-0.dtd"
   xmlns="http://www.w3.org/2000/svg"
   xmlns:svg="http://www.w3.org/2000/svg"><defs
   id="defs41" /><sodipodi:namedview
   id="namedview39"
   pagecolor="#505050"
   bordercolor="#eeeeee"
   borderopacity="1"
   inkscape:pageshadow="0"
   inkscape:pageopacity="0"
   inkscape:pagecheckerboard="0"
   showgrid="false"
   inkscape:zoom="16"
   inkscape:cx="27.90625"
   inkscape:cy="20.5"
   inkscape:window-width="1853"
   inkscape:window-height="1025"
   inkscape:window-x="67"
   inkscape:window-y="27"
   inkscape:window-maximized="1"
   inkscape:current-layer="Capa_1" />
<g
   id="g6">
	<g
   id="g4">
		<path
   style="fill:#010002;"
   d="M9.66,51.48c2.523,0,4.5-2.416,4.5-5.5V27.5h27.732c1.89,0,3.362-0.732,4.039-2.009    c0.678-1.277,0.458-2.907-0.601-4.473l-1.392-2.054c-1.208-1.784-1.194-4.788,0.031-6.56l1.315-1.902    c1.474-2.131,1.034-3.708,0.641-4.458c-0.394-0.75-1.44-2.008-4.032-2.008H13.985C13.471,1.69,11.765,0,9.66,0    C7.137,0,5.161,2.416,5.161,5.5v40.48C5.161,49.064,7.137,51.48,9.66,51.48z M43.266,7.438c0.073,0.139,0.072,0.602-0.451,1.359    L41.5,10.699c-1.921,2.778-1.942,7.147-0.047,9.947l1.392,2.054c0.45,0.665,0.541,1.184,0.435,1.384s-0.586,0.415-1.389,0.415    H14.16V7.037h27.732C42.813,7.037,43.194,7.3,43.266,7.438z M8.161,5.5C8.161,4.069,8.953,3,9.66,3c0.708,0,1.5,1.069,1.5,2.5    v40.48c0,1.431-0.792,2.5-1.5,2.5c-0.707,0-1.499-1.069-1.499-2.5V5.5z"
   id="path2" />
	</g>
</g>
<g
   id="g8">
</g>
<g
   id="g10">
</g>
<g
   id="g12">
</g>
<g
   id="g14">
</g>
<g
   id="g16">
</g>
<g
   id="g18">
</g>
<g
   id="g20">
</g>
<g
   id="g22">
</g>
<g
   id="g24">
</g>
<g
   id="g26">
</g>
<g
   id="g28">
</g>
<g
   id="g30">
</g>
<g
   id="g32">
</g>
<g
   id="g34">
</g>
<g
   id="g36">
</g>
<text
   xml:space="preserve"
   style="font-style:normal;font-weight:normal;font-size:18.6667px;line-height:1.25;font-family:sans-serif;fill:#000000;fill-opacity:1;stroke:none"
   x="21.33342"
   y="22.773706"
   id="text26533"><tspan
     sodipodi:role="line"
     id="tspan26531"
     x="21.33342"
     y="22.773706">1</tspan></text></svg>
